<?xml version="1.0" encoding="UTF-8"?>
<svg id="Layer_1" xmlns="http://www.w3.org/2000/svg" version="1.1" viewBox="0 0 283.46 283.46">
  <!-- Generator: Adobe Illustrator 30.0.0, SVG Export Plug-In . SVG Version: 2.1.1 Build 123)  -->
  <defs>
    <style>
      .st0 {
        fill: #231f20;
        font-family: DINNextLTW23-Bold, 'DIN Next LT W23';
        font-size: 23px;
        font-weight: 700;
      }

      .st1 {
        fill: #fff;
      }

      .st2 {
        fill: #fdfdfc;
      }

      .st3 {
        fill: #39a09c;
      }

      .st4 {
        fill: #359592;
      }

      .st5 {
        fill: #247e7e;
      }

      .st6 {
        fill: #e53946;
      }

      .st7 {
        fill: #1a515d;
      }
    </style>
  </defs>
  <g>
    <path class="st5" d="M141.59,25.46c18.44,9.82,36.34,20.78,54.5,31.15l1.62,1.45.29,1.75c-1,15.42,1.24,32.3-.04,47.54-1.86,22.19-28.63,43.33-47.68,51.45-1.76.75-6.72,2.88-8.31,2.95-1.81.08-8.72-3.03-10.78-3.97-19.37-8.88-44.18-29-45.67-51.93l.28-47.8c18.25-11.4,37.15-21.81,55.79-32.58Z"/>
    <path class="st3" d="M189.56,105.29c-1.58,18.86-24.33,36.83-40.53,43.73-1.48.63-5.61,2.41-7.01,2.5V35.89c15.54,8.29,30.64,17.53,45.95,26.27l1.37,1.23.25,1.49c-.85,13.11,1.06,27.46-.03,40.41Z"/>
    <path class="st4" d="M142.02,35.89v115.63s-.03.01-.05.01c-1.54.07-7.42-2.57-9.16-3.37-16.47-7.55-37.55-24.65-38.82-44.14l.23-40.64c15.52-9.68,31.58-18.54,47.42-27.69.13.07.25.14.38.2Z"/>
    <path class="st6" d="M87.6,122.44l8.19,11.99c8.19,9.63,18.56,17.53,29.79,23.35,3.1,1.61,13.46,6.67,16.42,6.58,3.18-.1,13.38-5.18,16.64-6.91,12.88-6.85,24.67-16.24,33.11-28.21l4.7-7.56c-7.36,25.21-30.69,43.21-54.85,51.22-23.67-8.18-46.53-25.76-53.99-50.46Z"/>
    <g>
      <path class="st2" d="M122.26,66.74c-.23-.21-.7-.07-1.06.32-.76.83-4.5,7.2-5.16,8.53-1.79,3.61-2.98,6.71-.42,10.32,3.03,4.27,10.59,3.75,12.89-.92,3.1-6.31-4.13-12.83-6.25-18.25Z"/>
      <path class="st2" d="M157.39,67.37c-7.54,1.28-8.75,11.95-2.1,15.65,4.59,2.55,7.06-.64,8.55-.36,1.97.37,4.15,6.63,6.96,5.31,3.57-1.68-4.35-6.43-4.44-7.68-.03-.42,1.3-2.83,1.34-4.14.18-5.68-4.75-9.71-10.3-8.77Z"/>
      <path class="st2" d="M132.96,125.96c.84-.47-.41-5.54-.74-6.57-1.68-5.28-6.14-10.12-11.34-12.16-1.39-.55-7.52-2.3-8.31-1.14-1.5,2.23,6.02,2.91,7.5,3.47,3.81,1.44,7.46,5.07,9.1,8.78.73,1.65,1.54,7.36,1.84,7.6.2.16,1.67.16,1.94.01Z"/>
      <path class="st2" d="M155.36,107.73c-3.77.62-5.15,4.62-4.23,8.08.78,2.93,5.98,6.57,8.21,8.65.83.77.89,2.42,2.44,2.01.54-.15,7.54-6.82,8.24-7.64,4.9-5.69.11-13.56-5.99-10.58-.85.42-2.49,2.43-2.67,2.43-.62,0-1.91-3.62-6-2.95Z"/>
      <path class="st2" d="M127.38,126.01c.66-6.03-3.26-11.36-8.69-13.54-1.33-.53-4.23-1.68-5.38-.81-2.74,2.09,3.44,2.48,4.72,3,2.2.9,5.09,3.54,6.04,5.72,1.09,2.51.01,6.41,3.31,5.63Z"/>
      <path class="st2" d="M119.72,126.01c.73.48,1.94-.22,2.06-1.27.27-2.46-2.63-6.53-5.11-7.17-.75-.19-3.87-.47-4.1-.24-1.52,1.51,2.68,2.31,3.27,2.6,3.88,1.91,3.52,5.83,3.89,6.08Z"/>
      <circle class="st2" cx="113.84" cy="125.24" r="2.39"/>
      <path class="st1" d="M175.42,96.19h-32.47v-32.47c0-.55-.45-1-1-1s-1,.45-1,1v32.47h-32.47c-.55,0-1,.45-1,1s.45,1,1,1h32.47v32.47c0,.55.45,1,1,1s1-.45,1-1v-32.47h32.47c.55,0,1-.45,1-1s-.45-1-1-1Z"/>
      <path class="st4" d="M121.76,85.14c.92,1.09-1.2,1.26-2.19.9-2.02-.72-4.2-4.72-2.15-6.53.64,1.26.61,2.9,1.56,4.06.71.87,2.66,1.43,2.78,1.57Z"/>
      <circle class="st3" cx="159.25" cy="75.6" r="5.93"/>
    </g>
  </g>
  <text class="st0" transform="translate(22.57 248.19)"><tspan x="0" y="0">البرنامج الذكي للتبرع بالدم</tspan></text>
  <g>
    <path class="st7" d="M70.15,212.69c1,3.01,3.41,5,9.21,5,5.43,0,7-1.66,7-3.91,0-2.41-1.61-3.76-8.97-5.01-12.12-2.07-14.33-6.01-14.33-10.7,0-6.98,6.72-10.54,14.98-10.54,11.99,0,15.25,6.17,15.64,10.22h-8.49c-.49-1.73-1.66-4.05-7.42-4.05-4.04,0-6.09,1.29-6.09,3.54,0,2.02,1.44,3.04,8,4.21,13.27,2.38,15.35,6.39,15.35,11.46,0,6.06-4.75,10.95-16.47,10.95-10.93,0-15.85-4.88-16.91-11.17h8.5Z"/>
    <path class="st7" d="M101.91,188.22h19.34c8.36,0,12,4.07,12,9,0,4.04-2.53,6.45-5.22,7.45,3.38,1.05,6.49,3.66,6.49,8.09,0,6.56-5.03,10.4-13.59,10.4h-19.02v-34.94ZM119.47,201.9c3.8,0,5-1.5,5-3.62,0-2.63-2-3.71-4.93-3.71h-9.29v7.32h9.22ZM110.26,216.85h9.58c3.27,0,5.75-.96,5.75-4.42,0-2.79-1.9-4.23-5.59-4.23h-9.74v8.64Z"/>
    <path class="st7" d="M173.2,209.78c0-6.02.04-12.29.24-16.16h-.05c-1.74,6.45-5.02,16.7-9.13,29.54h-7.46c-3.2-11.26-6.87-22.92-8.73-29.54h-.05c.26,4.06.58,10.85.58,16.8v12.73h-7.64v-34.94h12.25c3.51,10.82,6.73,20.31,7.77,25.09h.05c1.48-5.51,4.63-14.69,8.03-25.09h12.31v34.94h-8.17v-13.38Z"/>
    <path class="st7" d="M195.46,212.69c1,3.01,3.41,5,9.21,5,5.43,0,7-1.66,7-3.91,0-2.41-1.61-3.76-8.97-5.01-12.12-2.07-14.33-6.01-14.33-10.7,0-6.98,6.72-10.54,14.98-10.54,11.99,0,15.25,6.17,15.64,10.22h-8.49c-.49-1.73-1.66-4.05-7.42-4.05-4.04,0-6.09,1.29-6.09,3.54,0,2.02,1.44,3.04,8,4.21,13.27,2.38,15.35,6.39,15.35,11.46,0,6.06-4.75,10.95-16.47,10.95-10.93,0-15.85-4.88-16.91-11.17h8.5Z"/>
  </g>
</svg>
